#define application_width 32
#define application_height 32
static unsigned char application_bits[] = {
   0x00, 0x80, 0x00, 0x00, 0x00, 0x40, 0x01, 0x00, 0x00, 0x20, 0x02, 0x00,
   0x00, 0x10, 0x04, 0x00, 0x00, 0x08, 0x08, 0x00, 0x00, 0x04, 0x10, 0x00,
   0x00, 0x02, 0x20, 0x00, 0x00, 0x01, 0x40, 0x00, 0x80, 0x00, 0x80, 0x00,
   0x40, 0x00, 0x00, 0x01, 0x20, 0x00, 0x00, 0x02, 0x10, 0x00, 0x00, 0x04,
   0x08, 0x00, 0x00, 0x08, 0x04, 0x00, 0x00, 0x10, 0x02, 0x00, 0xfc, 0x20,
   0x01, 0x00, 0x02, 0x41, 0x02, 0x00, 0x01, 0x82, 0x04, 0x80, 0x0c, 0x44,
   0x08, 0x80, 0x13, 0x28, 0x10, 0x70, 0xfe, 0xf1, 0x20, 0x40, 0x0c, 0xe0,
   0x40, 0x80, 0x00, 0xe0, 0x80, 0x00, 0x01, 0xe0, 0x00, 0x01, 0x06, 0xe0,
   0x00, 0x02, 0xf8, 0xe7, 0x00, 0x04, 0x40, 0xf8, 0x00, 0x08, 0x20, 0xe0,
   0x00, 0x10, 0x10, 0x00, 0x00, 0x20, 0x08, 0x00, 0x00, 0x40, 0x04, 0x00,
   0x00, 0x80, 0x02, 0x00, 0x00, 0x00, 0x01, 0x00};
