#define cdrom_width 31
#define cdrom_height 31
static unsigned char cdrom_bits[] = {
   0x00, 0xf0, 0x07, 0x00, 0x00, 0x0e, 0x38, 0x00, 0x80, 0x01, 0xc0, 0x00,
   0x40, 0x00, 0x00, 0x01, 0x60, 0x00, 0x00, 0x02, 0xb0, 0x00, 0x00, 0x04,
   0x78, 0x01, 0x00, 0x08, 0xf4, 0x01, 0x00, 0x10, 0xc4, 0x03, 0x00, 0x10,
   0x9a, 0x07, 0x00, 0x20, 0x62, 0x0f, 0x00, 0x20, 0x82, 0x1d, 0x00, 0x20,
   0x01, 0xfe, 0x03, 0x40, 0x01, 0xd8, 0x05, 0x40, 0x01, 0x30, 0x06, 0x40,
   0x01, 0x30, 0x06, 0x40, 0x01, 0x30, 0x06, 0x40, 0x01, 0xd0, 0x0d, 0x40,
   0x01, 0xe0, 0x3f, 0x40, 0x02, 0x00, 0xfc, 0x20, 0x02, 0x00, 0x78, 0x23,
   0x02, 0x00, 0xf0, 0x2c, 0x04, 0x00, 0xe0, 0x13, 0x04, 0x00, 0xc0, 0x17,
   0x08, 0x00, 0x40, 0x0f, 0x10, 0x00, 0x80, 0x06, 0x20, 0x00, 0x00, 0x03,
   0x40, 0x00, 0x00, 0x01, 0x80, 0x01, 0xc0, 0x00, 0x00, 0x0e, 0x38, 0x00,
   0x00, 0xf0, 0x07, 0x00};
