#define document_width 25
#define document_height 32
static unsigned char document_bits[] = {
   0xff, 0xff, 0x07, 0x00, 0x01, 0x00, 0x0c, 0x00, 0x01, 0x00, 0x14, 0x00,
   0x01, 0x00, 0x24, 0x00, 0x01, 0x00, 0x44, 0x00, 0x01, 0x00, 0x84, 0x00,
   0x01, 0x00, 0xfc, 0x01, 0x01, 0x00, 0x00, 0x01, 0x01, 0x00, 0x00, 0x01,
   0x01, 0x00, 0x00, 0x01, 0x01, 0x00, 0x00, 0x01, 0x01, 0x00, 0x00, 0x01,
   0x01, 0x00, 0x00, 0x01, 0x01, 0x00, 0x00, 0x01, 0x01, 0x00, 0x00, 0x01,
   0x01, 0x00, 0x00, 0x01, 0x01, 0x00, 0x00, 0x01, 0x01, 0x00, 0x00, 0x01,
   0x01, 0x00, 0x00, 0x01, 0x01, 0x00, 0x00, 0x01, 0x01, 0x00, 0x00, 0x01,
   0x01, 0x00, 0x00, 0x01, 0x01, 0x00, 0x00, 0x01, 0x01, 0x00, 0x00, 0x01,
   0x01, 0x00, 0x00, 0x01, 0x01, 0x00, 0x00, 0x01, 0x01, 0x00, 0x00, 0x01,
   0x01, 0x00, 0x00, 0x01, 0x01, 0x00, 0x00, 0x01, 0x01, 0x00, 0x00, 0x01,
   0x01, 0x00, 0x00, 0x01, 0xff, 0xff, 0xff, 0x01};
