#define floppy_width 32
#define floppy_height 32
static unsigned char floppy_bits[] = {
   0xfe, 0xff, 0xff, 0x0f, 0x81, 0x00, 0x80, 0x10, 0x81, 0x00, 0x8e, 0x20,
   0x81, 0x00, 0x91, 0x40, 0x81, 0x00, 0x91, 0x80, 0x81, 0x00, 0x91, 0x80,
   0x81, 0x00, 0x91, 0x80, 0x81, 0x00, 0x91, 0x80, 0x81, 0x00, 0x8e, 0x80,
   0x81, 0x00, 0x80, 0x80, 0x01, 0xff, 0x7f, 0x80, 0x01, 0x00, 0x00, 0x80,
   0x01, 0x00, 0x00, 0x80, 0x01, 0x00, 0x00, 0x80, 0xe1, 0xff, 0xff, 0x87,
   0x11, 0x00, 0x00, 0x88, 0x11, 0x00, 0x00, 0x88, 0x11, 0x00, 0x00, 0x88,
   0x11, 0x00, 0x00, 0x88, 0x11, 0x00, 0x00, 0x88, 0x11, 0x00, 0x00, 0x88,
   0x11, 0x00, 0x00, 0x88, 0x11, 0x00, 0x00, 0x88, 0x11, 0x00, 0x00, 0x88,
   0x11, 0x00, 0x00, 0x88, 0x11, 0x00, 0x00, 0x88, 0x11, 0x00, 0x00, 0x88,
   0x11, 0x00, 0x00, 0x88, 0x11, 0x00, 0x00, 0x88, 0x11, 0x00, 0x00, 0x88,
   0x11, 0x00, 0x00, 0x88, 0xfe, 0xff, 0xff, 0x7f};
