#define sm_folder_width 16
#define sm_folder_height 13
static unsigned char sm_folder_bits[] = {
   0x3c, 0x00, 0x42, 0x00, 0xff, 0x7f, 0x01, 0x80, 0x01, 0x80, 0x01, 0x80,
   0x01, 0x80, 0x01, 0x80, 0x01, 0x80, 0x01, 0x80, 0x01, 0x80, 0x01, 0x80,
   0xff, 0xff};
