#define sm_harddisk_width 16
#define sm_harddisk_height 6
static unsigned char sm_harddisk_bits[] = {
   0xff, 0xff, 0x01, 0x80, 0x01, 0x80, 0x05, 0x80, 0x01, 0x80, 0xff, 0xff};
